<svg xmlns="http://www.w3.org/2000/svg" width="288" height="288"><defs><style>.cls-2{fill:#5773ff}</style></defs><g id="illustration_doable" data-name="illustration/doable" transform="translate(-44 -70)"><path id="bound" transform="translate(44 70)" fill="none" d="M0 0h288v288H0z"/><g id="Group_1322" data-name="Group 1322" transform="translate(-117.555 -167.75)"><path id="Path_2480" data-name="Path 2480" class="cls-2" d="M239.554 295.75v171.044h132.892V295.75zm6.276 135.9V303.41h120.34v128.244zm0 28.864v-22.6h120.34v22.6z"/><path id="Path_2481" data-name="Path 2481" class="cls-2" d="M307.87 443.2a6.014 6.014 0 1 0 4.266 1.763 5.834 5.834 0 0 0-4.266-1.763z"/><path id="Path_2482" data-name="Path 2482" class="cls-2" d="M290.358 344.1a15.067 15.067 0 1 0-22.26 0 19.826 19.826 0 0 0-9.787 16.985V374.5h41.836v-13.41a19.825 19.825 0 0 0-9.789-16.99zm-11.129-21a10.862 10.862 0 0 1 6.935 19.261 10.731 10.731 0 0 1-6.9 2.557h-.064a10.731 10.731 0 0 1-6.9-2.557l-.1-.088h-.005a10.866 10.866 0 0 1 7.047-19.175zm5.341 22.717zm-1.684 2.742l-3.642 4.317-3.13-4.179a12.824 12.824 0 0 0 6.64-.105zm-20.419 21.778v-9.254a15.682 15.682 0 0 1 7.67-13.436l17.023 22.69zm33.524 0H290.7l1.054-.794-9.948-13.255 7-8.314a15.494 15.494 0 0 1 7.187 13.109z"/><path id="Rectangle_830" data-name="Rectangle 830" class="cls-2" transform="translate(267.818 356.582)" d="M0 0h4.46v4.156H0z"/><path id="Path_2483" data-name="Path 2483" class="cls-2" d="M264.891 396.5l11.129-11.122-4.153-4.161-6.979 6.981-2.06-2.062-4.154 4.163z"/><path id="Rectangle_831" data-name="Rectangle 831" class="cls-2" transform="translate(284.207 407.061)" d="M0 0h65.508v5.868H0z"/><path id="Rectangle_832" data-name="Rectangle 832" class="cls-2" transform="translate(284.207 386.178)" d="M0 0h65.508v5.868H0z"/><path id="Path_2484" data-name="Path 2484" class="cls-2" d="M274.212 404.446l-2.345-2.346-5.264 5.265.044-.017-1.759 1.734-2.055-2.064-4.163 4.162 6.218 6.21 11.137-11.13-1.813-1.813z"/><path id="Rectangle_833" data-name="Rectangle 833" class="cls-2" transform="translate(313.074 367.31)" d="M0 0h36.644v5.868H0z"/><path id="Rectangle_834" data-name="Rectangle 834" class="cls-2" transform="translate(313.074 347.91)" d="M0 0h36.644v5.876H0z"/><path id="Rectangle_835" data-name="Rectangle 835" class="cls-2" transform="translate(313.074 326.67)" d="M0 0h36.644v5.876H0z"/></g></g></svg>