<svg xmlns="http://www.w3.org/2000/svg" width="288" height="288"><defs><style>.cls-2{fill:#5773ff}</style></defs><g id="illustration_guided" data-name="illustration/guided" transform="translate(-44 -70)"><path id="bound" transform="translate(44 70)" fill="none" d="M0 0h288v288H0z"/><g id="Group_1324" data-name="Group 1324" transform="translate(19.747 -357.786)"><path id="Rectangle_836" data-name="Rectangle 836" class="cls-2" transform="translate(172.152 577.018)" d="M0 0h6.66v5.868H0z"/><path id="Path_2487" data-name="Path 2487" class="cls-2" d="M268.955 615.607l-16.172-16.171v-107.65h-159v44.135a29.723 29.723 0 0 0 0 48.349v2.542a41.5 41.5 0 0 0-26.531 38.5v25.85h87.859V634.05h111.771a2.942 2.942 0 0 0 2.938-2.939V617.7a2.943 2.943 0 0 0-.865-2.093zM87.229 560.093a23.764 23.764 0 0 1 6.953-16.848l.032-.032a23.953 23.953 0 0 1 5.313-4.023l.06-.033a23.925 23.925 0 0 1 10.571-2.956h.113l.19-.007v-.006l.134-.009c.195-.015.39-.03.589-.03a23.817 23.817 0 0 1 4.312.414l.043.007a23.926 23.926 0 0 1 .129 47.038l-.133.025a23.439 23.439 0 0 1-4.334.419h-.022c-.219 0-.434-.015-.648-.028l-.069-.005-.106-.005-.131-.008h-.016a23.632 23.632 0 0 1-10.683-3l-.07-.039a24.035 24.035 0 0 1-5.246-3.983l-.064-.065a23.8 23.8 0 0 1-6.917-16.826zm126.028 37.394h-5.09l.736-.554-15.517-20.672 9.331-11.088a21.592 21.592 0 0 1 10.539 18.551zm-23.511-41.433a14.406 14.406 0 1 1 14.406-14.407 14.423 14.423 0 0 1-14.406 14.407zm1.721 5.868a20.972 20.972 0 0 1 5.594.845l-7.3 8.667-6.652-8.865a20.911 20.911 0 0 1 4.916-.642h1.712v-.005h1.726zm10.505 35.565h-35.733v-13.77a21.775 21.775 0 0 1 11.2-18.916zm31.8 0h-14.647V583.72a27.8 27.8 0 0 0-17.486-25.677l.017-.012-.018-.007a20.282 20.282 0 1 0-23.783 0l-.016.006.015.011a27.805 27.805 0 0 0-17.483 25.675v13.77h-16.154a41.344 41.344 0 0 0-18.158-11.55l.028-.015-.031-.009a29.776 29.776 0 0 0-10.223-55.237v-17.01h117.944zM109.961 507.8v22.542a29.667 29.667 0 0 0-10.306 2.272v-34.96h147.252v100.061h-7.261V507.8zm27.325 125.558v-3.73h-5.868v15.663H90.94v-15.66h-5.868v15.66H73.12v-19.978a35.451 35.451 0 0 1 21.02-32.308l.08-.036a34.37 34.37 0 0 1 5.248-1.834l.054-.015a35.238 35.238 0 0 1 8.994-1.2h2.558c.038 0 .075.006.114.006h2.661c.362 0 .716.024 1.067.049l.421.025.237.012a35.1 35.1 0 0 1 20.528 7.812l.39.324.054.047a35.178 35.178 0 0 1 4.6 4.671h-.021l.277.313.248.314a35.029 35.029 0 0 1 6.013 11.439l.043.144a34.674 34.674 0 0 1 1.137 5.28l.007.049a35.656 35.656 0 0 1 .381 4.91v3.362h.005v16.61h-11.95zm16.394-18.6a40.758 40.758 0 0 0-4.817-11.167h99.761l11.166 11.159zm1.132 5.87h109.132v7.564H155.111v-2.865a40.3 40.3 0 0 0-.299-4.707z"/><path id="Path_2488" data-name="Path 2488" class="cls-2" d="M126.168 603.583h.021l-.178-.224-.025-.028-.123-.154-.071-.086h-.007l-.056-.062-.154-.166a11.492 11.492 0 0 0-3.346-2.636 10.7 10.7 0 0 0-4.881-1.188 10.825 10.825 0 0 0-5.643 1.607 7.72 7.72 0 0 0-.95-.43c-.146-.059-.292-.117-.436-.18l-.349-.152v.016a10.272 10.272 0 0 0-3.9-.861 10.629 10.629 0 0 0-4.875 1.189 11.56 11.56 0 0 0-3.567 2.863l-.023.027c-.017.021-.037.04-.054.061l-.335.408h.035a12.608 12.608 0 0 0-1.95 3.732 13.522 13.522 0 0 0 .17 8.788c1.519 4.14 7.8 9.62 12.8 13.488l3.433 2.653 3.441-2.645c4.087-3.148 11.186-9.088 12.809-13.5a13.438 13.438 0 0 0 .172-8.781 12.666 12.666 0 0 0-1.958-3.739zm-3.731 10.483c-.867 2.358-6.14 7.2-10.732 10.762-3.6-2.8-9.762-8.1-10.743-10.763a7.5 7.5 0 0 1-.084-4.932 6.1 6.1 0 0 1 2.979-3.678 4.725 4.725 0 0 1 2.2-.54 5.383 5.383 0 0 1 4.561 2.806l1.079 1.839 1.08-1.839a5.361 5.361 0 0 1 4.56-2.806 4.867 4.867 0 0 1 2.206.541 6.2 6.2 0 0 1 2.989 3.679 7.554 7.554 0 0 1-.095 4.931z"/></g></g></svg>