<svg xmlns="http://www.w3.org/2000/svg" width="343" height="52"><defs><style>.cls-3{fill:none}</style></defs><g id="button_indigo_outline_active_facebook" data-name="button/indigo/outline/active/facebook" transform="translate(-16 -483)"><g id="Bound" transform="translate(16 483)" stroke="#5773ff" stroke-width="2" fill="none"><rect width="343" height="52" rx="26" stroke="none"/><rect width="341" height="50" x="1" y="1" class="cls-3" rx="25"/></g><text id="LOGIN_WITH_FACEBOOK" data-name="LOGIN WITH FACEBOOK" transform="translate(129.016 514)" font-size="13" font-family="Gibson-SemiBold,Gibson" font-weight="600" fill="#454f63"><tspan x="0" y="0">LOGIN WITH FACEBOOK</tspan></text><g id="icons_dark_facebook" data-name="icons/dark/facebook" transform="translate(68 102)"><path id="bg" d="M0 0h24v24H0z" class="cls-3" transform="translate(33 395)"/><path id="facebook" d="M9.5 3H12V0H9.5A3.5 3.5 0 0 0 6 3.5V5H4v3h2v8h3V8h2.5l.5-3H9V3.5a.507.507 0 0 1 .5-.5z" transform="translate(37 399)" fill="#454f63"/></g></g></svg>