<svg xmlns="http://www.w3.org/2000/svg" width="288" height="288"><defs><style>.cls-2{fill:#5773ff}</style></defs><g id="illustration_personailzed" data-name="illustration/personailzed" transform="translate(-44 -70)"><path id="bound" transform="translate(44 70)" fill="none" d="M0 0h288v288H0z"/><g id="Group_1321" data-name="Group 1321" transform="translate(-138.966 -434.127)"><path id="Path_2476" data-name="Path 2476" class="cls-2" d="M404.149 616.521v-18.926h-25.016l.922 109.811 11.384 21.832 12.671-20.558.037-.06v-86.23h5.2v39.488h5.868v-45.357zm-19.1-13.049h13.225v13.049h-13.113zm.159 18.92h13.065v72.982h-12.445zm13.069 84.568l-6.412 10.4L385.92 706l-.044-4.759h12.4z"/><path id="Path_2477" data-name="Path 2477" class="cls-2" d="M237.967 566.127v164.18h124.972V598.489l-32.362-32.362zm119.1 36.512v121.8H243.843V571.995h82.577v30.644zm-24.767-5.868v-20.617l20.61 20.617z"/><path id="Path_2478" data-name="Path 2478" class="cls-2" d="M287 650.613h37.392V636.4a22.273 22.273 0 0 0-13.954-20.5l.014-.009-.031-.012a16.27 16.27 0 1 0-19.152 0l-.022.009.015.01A22.259 22.259 0 0 0 277.3 636.4v14.218h9.7zm2.38-47.854a11.47 11.47 0 1 1 11.548 11.467h-.155a11.482 11.482 0 0 1-11.393-11.467zm12.843 16.267A17.394 17.394 0 0 1 319.6 636.4v9.422h-4.4v-7.317h-4.8v7.312h-19.107v-7.312h-4.8v7.312h-4.4V636.4a17.394 17.394 0 0 1 17.374-17.375h1.245c.043 0 .086.007.129.007h.037z"/><path id="Path_2479" data-name="Path 2479" class="cls-2" d="M295.333 622.757a6.956 6.956 0 0 0-3.426 4.121 7.653 7.653 0 0 0 .091 5.037c.689 1.856 3 4.316 6.865 7.312l2.257 1.741 2.248-1.734c2.66-2.047 6.013-4.979 6.875-7.32a7.711 7.711 0 0 0 .091-5.034 6.92 6.92 0 0 0-3.428-4.123 6.348 6.348 0 0 0-5.786.013 6.35 6.35 0 0 0-5.787-.013zm5.124 4.63l.665 1.128.653-1.127a2.539 2.539 0 0 1 3.335-1.121 3.055 3.055 0 0 1 1.477 1.822 3.768 3.768 0 0 1-.045 2.468c-.426 1.161-3.078 3.606-5.421 5.441-2.254-1.769-4.968-4.208-5.423-5.442a3.808 3.808 0 0 1-.053-2.466 3.114 3.114 0 0 1 1.485-1.824 2.341 2.341 0 0 1 1.078-.269 2.66 2.66 0 0 1 2.249 1.39z"/><path id="Rectangle_827" data-name="Rectangle 827" class="cls-2" transform="translate(263.991 681.998)" d="M0 0h73.436v5.868H0z"/><path id="Rectangle_828" data-name="Rectangle 828" class="cls-2" transform="translate(263.991 662.602)" d="M0 0h73.436v5.867H0z"/><path id="Rectangle_829" data-name="Rectangle 829" class="cls-2" transform="translate(263.991 701.386)" d="M0 0h73.436v5.868H0z"/></g></g></svg>