<svg xmlns="http://www.w3.org/2000/svg" width="288" height="288"><defs><style>.cls-2{fill:#5773ff}</style></defs><g id="illustration_proven" data-name="illustration/proven" transform="translate(-44 -70)"><path id="bound" transform="translate(44 70)" fill="none" d="M0 0h288v288H0z"/><g id="Group_1320" data-name="Group 1320" transform="translate(-179.223 -397.909)"><path id="Path_2471" data-name="Path 2471" class="cls-2" d="M336.4 647.815l-.086-.155a23.361 23.361 0 0 0-10.806-9.984l.021-.016-.021-.009a16.933 16.933 0 0 0 6.365-13.2 17.106 17.106 0 1 0-34.212 0 16.934 16.934 0 0 0 6.366 13.2l-.019.008.017.013a23.1 23.1 0 0 0-13.8 21.149v15.01h36.356v-.29c0-.229.018-.453.034-.678.012-.156.024-.312.031-.47l.019-.468c.056-1.256.157-2.476.316-3.623l.008-.061c.159-1.2.341-2.248.556-3.193l.025-.113-9.148-12.18 7.062-8.4a17.167 17.167 0 0 1 6.756 8.309l.177.461.267-.416a39.641 39.641 0 0 1 3.593-4.762zm-13.9 20.149h-26.409v-9.143a17.29 17.29 0 0 1 8.476-14.756l17.937 23.9zm-18.97-43.509a11.23 11.23 0 1 1 11.23 11.23 11.246 11.246 0 0 1-11.227-11.23zm6.721 17.4a17.154 17.154 0 0 1 3.1-.3h2.812a16.377 16.377 0 0 1 3.627.441l-4.989 5.932z"/><path id="Rectangle_825" data-name="Rectangle 825" class="cls-2" transform="translate(300.347 652.815)" d="M0 0h5.532v5.868H0z"/><path id="Path_2472" data-name="Path 2472" class="cls-2" d="M430.637 637.668l.009-.007-.019-.008a16.935 16.935 0 0 0 6.368-13.2 17.106 17.106 0 1 0-34.213 0 16.932 16.932 0 0 0 6.371 13.2l-.016.007.018.014a23.28 23.28 0 0 0-10.727 9.841l-.087.154.116.134a42.126 42.126 0 0 1 3.58 4.691l.263.4.179-.446a17.179 17.179 0 0 1 6.689-8.095l7.06 8.393-9 11.989.026.114c.209.911.39 1.912.569 3.11l.039.284a38.15 38.15 0 0 1 .351 4.221l.02.717.026-.034c.008.134.015.273.015.435v.25h36.149v-15.016a23.106 23.106 0 0 0-13.786-21.148zm-12.154 3.889h2.809a17.2 17.2 0 0 1 3.108.3l-4.553 6.071-4.988-5.928a16.387 16.387 0 0 1 3.624-.443zm-9.825-17.1a11.23 11.23 0 1 1 11.269 11.228h-.077a11.242 11.242 0 0 1-11.192-11.23zm21.427 19.607a17.291 17.291 0 0 1 8.472 14.754v9.143h-26.4z"/><path id="Rectangle_826" data-name="Rectangle 826" class="cls-2" transform="translate(428.771 652.808)" d="M0 0h5.532v5.868H0z"/><path id="Path_2473" data-name="Path 2473" class="cls-2" d="M396.012 657.131v-.005l-.042-.067-.417-.669v.054a31.461 31.461 0 0 0-15.418-12.267l.027-.017-.027-.009a22.64 22.64 0 0 0 5.884-5.705h.008l.114-.162.009-.013.17-.244-.01-.005a22.838 22.838 0 1 0-37.763.006h-.007l.108.155c.02.029.037.06.057.088l.12.172.013-.006a22.7 22.7 0 0 0 5.878 5.708l-.023.008.032.021a31.43 31.43 0 0 0-15.608 12.548v-.052l-.388.638-.02.03-.041.068v.007a31.193 31.193 0 0 0-4.516 15.916h-.007v20.108h66.576v-20.098h-.01a31.123 31.123 0 0 0-4.699-16.208zm-28.591-48.85a16.994 16.994 0 0 1 16.974 16.974 16.709 16.709 0 0 1-3.9 10.682l-.081.1a16.9 16.9 0 0 1-12.961 6.191h-.1a16.874 16.874 0 0 1-12.972-6.248l-.034-.041a16.715 16.715 0 0 1-3.9-10.682 16.989 16.989 0 0 1 16.974-16.976zm19.363 68.389h-5.141v10.901H353.2v-10.9h-5.133v-.005h-.74v10.905h-7.317v-14.03a25.475 25.475 0 0 1 25.444-25.441h1.689c.092 0 .182.007.274.007h1.983a25.475 25.475 0 0 1 25.446 25.445v14.03h-7.329V676.67z"/><path id="Path_2474" data-name="Path 2474" class="cls-2" d="M380.1 659.531c-.049-.1-.1-.21-.144-.318l-.026-.065-.008-.005a9.129 9.129 0 0 0-4.141-4.523 8.255 8.255 0 0 0-3.785-.915 8.348 8.348 0 0 0-4.178 1.12 8.462 8.462 0 0 0-4.182-1.12 8.2 8.2 0 0 0-3.778.915 9.028 9.028 0 0 0-3.822 3.792l-.009.017c-.007.014-.017.026-.025.04l-.435.818.058-.036c-.122.279-.232.561-.327.846a10.385 10.385 0 0 0 .132 6.755c1.16 3.159 5.866 7.267 9.609 10.158l2.769 2.151 2.785-2.142c3.059-2.351 8.375-6.8 9.61-10.16a10.368 10.368 0 0 0 .138-6.767 5.325 5.325 0 0 0-.241-.561zm-20.241 2.047a4.5 4.5 0 0 1 2.171-2.678 3.546 3.546 0 0 1 1.608-.4 3.9 3.9 0 0 1 3.319 2.045l.853 1.455.855-1.454a3.9 3.9 0 0 1 3.32-2.045 3.487 3.487 0 0 1 1.607.4 4.446 4.446 0 0 1 2.172 2.678 5.591 5.591 0 0 1-.061 3.62c-.635 1.715-4.505 5.273-7.893 7.907-2.664-2.078-7.165-5.956-7.886-7.907a5.537 5.537 0 0 1-.069-3.621z"/><path id="Path_2475" data-name="Path 2475" class="cls-2" d="M328.277 563.251l15.3 17.915 32.1-25.608 8.859 10.38 26.728-22.409-6.321-7.4 21.929-.261-4.793 19.906-6.275-7.353-32.608 27.5-8.731-10.227-34.247 27.426-14.692-17.214-4.47 3.813 18.234 21.351.157.185 34.253-27.434 8.829 10.341 32.6-27.5 9.965 11.672 9.262-38.429-42.007.489 10.615 12.439-17.735 14.867-8.764-10.268-32.112 25.608-15.259-17.872-.163-.19-32.317 27.594-.19.162 3.813 4.469z"/></g></g></svg>