<svg xmlns="http://www.w3.org/2000/svg" width="24" height="24" viewBox="0 0 24 24">
    <defs>
        <style>
            .cls-1{fill:none}.cls-2{fill:#454f63}
        </style>
    </defs>
    <g id="icons_dark_help_outline" data-name="icons/dark/help_outline" transform="translate(-502 -387)">
        <path id="bg" d="M0 0h24v24H0z" class="cls-1" transform="translate(502 387)"/>
        <path id="help_outline" d="M12 2a10 10 0 1 0 10 10A10 10 0 0 0 12 2zm0 18a8 8 0 1 1 8-8 8.011 8.011 0 0 1-8 8zm-1-4h2v2h-2zm1.61-9.96a4 4 0 0 0-4.43 2.79.907.907 0 0 0 .87 1.17h.2a.963.963 0 0 0 .88-.67 2 2 0 0 1 2.3-1.28 2.023 2.023 0 0 1 1.57 2.1c-.1 1.34-1.62 1.63-2.45 2.88 0 .01-.01.01-.01.02s-.02.03-.03.05a3.331 3.331 0 0 0-.25.5c-.01.03-.03.05-.04.08a.637.637 0 0 0-.02.07A3.718 3.718 0 0 0 11 15h2a2.124 2.124 0 0 1 .28-1.07c.02-.03.03-.06.05-.09a2.758 2.758 0 0 1 .28-.39c.01-.01.02-.03.03-.04a3.514 3.514 0 0 1 .33-.34c.96-.91 2.26-1.65 1.99-3.56a4.075 4.075 0 0 0-3.35-3.47z" class="cls-2" transform="translate(502 387)"/>
    </g>
</svg>
