<svg xmlns="http://www.w3.org/2000/svg" width="343" height="52"><defs><style>.cls-4{fill:none}</style></defs><g id="button_indigo_outline_active_google" data-name="button/indigo/outline/active/google" transform="translate(-16 -556)"><g id="Bound" transform="translate(16 556)" stroke="#5773ff" stroke-width="2" fill="none"><rect width="343" height="52" rx="26" stroke="none"/><rect width="341" height="50" x="1" y="1" class="cls-4" rx="25"/></g><text id="SIGN_UP_WITH_GOOGLE" data-name="SIGN UP WITH GOOGLE" transform="translate(131.016 587)" font-size="13" font-family="Gibson-SemiBold,Gibson" font-weight="600" fill="#454f63"><tspan x="0" y="0">SIGN UP WITH GOOGLE</tspan></text><g id="icons_dark_google" data-name="icons/dark/google" transform="translate(-933 120)"><path id="Path_2508" d="M8.159 6.856V9.6H12.7a4.32 4.32 0 0 1-4.537 3.45 5.051 5.051 0 0 1 0-10.1 4.5 4.5 0 0 1 3.188 1.234l2.172-2.091A7.655 7.655 0 0 0 8.16 0a8 8 0 1 0 0 16c4.616 0 7.681-3.247 7.681-7.816a7.323 7.323 0 0 0-.125-1.325H8.16z" data-name="Path 2508" transform="translate(1039.839 454.001)" fill="#454f63"/><path id="bg" d="M0 0h24v24H0z" class="cls-4" transform="translate(1036 450)"/></g></g></svg>