<svg xmlns="http://www.w3.org/2000/svg" width="288" height="288"><defs><style>.cls-2{fill:#5773ff}</style></defs><g id="illustration_gps" data-name="illustration/gps" transform="translate(-44 -70)"><path id="bound" transform="translate(44 70)" fill="none" d="M0 0h288v288H0z"/><g id="Group_1318" data-name="Group 1318" transform="translate(-51.754 -237.051)"><path id="Path_2445" data-name="Path 2445" class="cls-2" d="M298.279 471.115a69.638 69.638 0 0 0 1.493-5.386l.071-.307H285.4v10.449a9.146 9.146 0 1 1-18.292 0v-10.449h-16.736l-.075.08c-.32.344-.616.664-.937 1.018-1.312 1.438-2.639 2.894-3.983 4.349l-.388.42h16.25v4.582a15.014 15.014 0 1 0 30.028 0v-4.582h6.956z"/><path id="Path_2446" data-name="Path 2446" class="cls-2" d="M215.051 471.286h12.679l.072-.069a157.11 157.11 0 0 0 5.321-5.377l.4-.422h-12.6v-4.59a15.018 15.018 0 0 0-30.035 0v4.59h-9.848l.016.265a34.978 34.978 0 0 0 .693 5.407l.043.2h14.972v-10.462a9.141 9.141 0 0 1 18.283 0z"/><path id="Path_2447" data-name="Path 2447" class="cls-2" d="M177.8 471.286h.025l.035-.209c.009-.052.012-.11.019-.165l.02-.125h-.006a1.964 1.964 0 0 0-.017-.532 41.486 41.486 0 0 1-.541-4.605l-.016-.232c-.062-.973-.129-2.2-.137-3.519 0-1.282.04-2.6.12-3.928a2.4 2.4 0 0 0-2.236-2.536 2.294 2.294 0 0 0-1.71.545 2.47 2.47 0 0 0-.841 1.7 67.5 67.5 0 0 0-.129 4.223c0 1.322.076 2.59.153 3.777l.015.233a44.554 44.554 0 0 0 .547 4.87h-.345l.4.382c0 .012.008.024.011.036l.015.081h.01a2.4 2.4 0 0 0 2.309 1.793 2.2 2.2 0 0 0 .428-.044 2.362 2.362 0 0 0 1.871-1.745z"/><path id="Path_2448" data-name="Path 2448" class="cls-2" d="M282.139 437.912l.343-.025a10.116 10.116 0 0 1 1.406-.037h.009a24.159 24.159 0 0 1 9.662 2.107 2.355 2.355 0 0 0 .946.2 2.4 2.4 0 0 0 .947-4.607 29.226 29.226 0 0 0-11.489-2.488h-.024a5.918 5.918 0 0 0-1.667.025c-.172.019-.343.038-.515.052a2.4 2.4 0 0 0-2.2 2.579 2.34 2.34 0 0 0 .827 1.611 2.409 2.409 0 0 0 1.755.583z"/><path id="Path_2449" data-name="Path 2449" class="cls-2" d="M247.437 461.825a2.439 2.439 0 0 0 1.776-.777c2.772-3.036 5.758-6.255 8.814-9.23a2.4 2.4 0 0 0 .051-3.395 2.415 2.415 0 0 0-3.391-.044c-3.111 3.03-6.161 6.318-9.02 9.427a2.4 2.4 0 0 0-.626 1.728 2.4 2.4 0 0 0 2.4 2.29z"/><path id="Path_2450" data-name="Path 2450" class="cls-2" d="M262.754 446.766a2.394 2.394 0 0 0 1.51-.537 43.011 43.011 0 0 1 10.33-6.427 2.386 2.386 0 0 0 1.287-3.126 2.4 2.4 0 0 0-3.135-1.295 47.331 47.331 0 0 0-11.492 7.115 2.4 2.4 0 0 0 1.5 4.27z"/><path id="Path_2451" data-name="Path 2451" class="cls-2" d="M303.46 440.418a2.4 2.4 0 0 0-3.275 3.513c2.526 2.344 4.015 5.7 4.425 9.961a2.428 2.428 0 0 0 2.385 2.169c.042 0 .086 0 .128-.005h.114a2.416 2.416 0 0 0 2.152-2.626c-.535-5.467-2.529-9.843-5.928-13.006z"/><path id="Path_2452" data-name="Path 2452" class="cls-2" d="M301.462 480.561a2.419 2.419 0 0 0-3.141 1.278 162.114 162.114 0 0 1-5.432 11.494 2.391 2.391 0 0 0 1.023 3.23 2.285 2.285 0 0 0 1.1.279 2.409 2.409 0 0 0 2.134-1.294c2.125-4.106 4.007-8.09 5.592-11.842a2.393 2.393 0 0 0-1.279-3.145z"/><path id="Path_2453" data-name="Path 2453" class="cls-2" d="M187.918 486.043a18.888 18.888 0 0 1-7.668-8.263 2.406 2.406 0 0 0-3.213-1.09 2.388 2.388 0 0 0-1.091 3.207 23.521 23.521 0 0 0 9.6 10.316 2.4 2.4 0 1 0 2.367-4.17z"/><path id="Path_2454" data-name="Path 2454" class="cls-2" d="M175.484 451.652a2.709 2.709 0 0 0 .37.027 2.388 2.388 0 0 0 2.368-2.028c.606-3.88 1.485-8.049 2.611-12.392a2.4 2.4 0 0 0-4.653-1.205c-1.176 4.55-2.084 8.875-2.7 12.855a2.409 2.409 0 0 0 2 2.743z"/><path id="Path_2455" data-name="Path 2455" class="cls-2" d="M207.031 488.519a28.677 28.677 0 0 1-11.782.151 2.3 2.3 0 0 0-1.776.332 2.41 2.41 0 0 0-1.04 1.552 2.389 2.389 0 0 0 1.892 2.814 33.092 33.092 0 0 0 13.761-.161 2.4 2.4 0 1 0-1.055-4.688z"/><path id="Path_2456" data-name="Path 2456" class="cls-2" d="M224.807 479a53.689 53.689 0 0 1-10.255 6.816 2.4 2.4 0 1 0 2.124 4.3 58.38 58.38 0 0 0 11.177-7.407 2.4 2.4 0 0 0-3.046-3.709z"/><path id="Path_2457" data-name="Path 2457" class="cls-2" d="M180.147 430.674a2.259 2.259 0 0 0 .711.109 2.409 2.409 0 0 0 2.295-1.687 219.116 219.116 0 0 1 4.148-12.084 2.4 2.4 0 0 0-4.5-1.671 231.306 231.306 0 0 0-4.228 12.334 2.394 2.394 0 0 0 1.575 3z"/><path id="Path_2458" data-name="Path 2458" class="cls-2" d="M307.055 459.861a2.445 2.445 0 0 0-2.713 2.029c-.136.958-.366 2.009-.589 3.027l-.11.505-.043.2a69.353 69.353 0 0 1-1.387 5.348l-.1.322h.011l-.184.645c-.184.654-.374 1.331-.61 2.034a2.406 2.406 0 0 0 1.5 3.046h.007a2.636 2.636 0 0 0 .769.122 2.4 2.4 0 0 0 2.269-1.634c.394-1.158.7-2.281 1-3.368l.237-.848.051-.182.026-.1.062-.216h-.005a69.132 69.132 0 0 0 1.166-4.872h.006l.04-.2c.07-.352.146-.709.223-1.066.151-.7.306-1.417.4-2.083a2.386 2.386 0 0 0-2.038-2.707z"/><path id="Path_2459" data-name="Path 2459" class="cls-2" d="M244.03 465.623l-.011-.2H244a2.46 2.46 0 0 0-.547-1.152v-.006l-.05-.067a.6.6 0 0 0-.145-.179c-.016-.015-.034-.024-.05-.038l-.224-.256v.09a2.4 2.4 0 0 0-3.1.353c-.217.236-.458.492-.7.749l-.871.932c-.186.2-.371.4-.553.6l-.079.084c-1.29 1.384-2.651 2.8-4.162 4.338l-.709.728c-.583.6-1.166 1.2-1.768 1.789a2.4 2.4 0 1 0 3.34 3.439c1.324-1.282 2.6-2.6 3.661-3.717.6-.615 1.176-1.208 1.753-1.815l.074-.078.368-.39.029-.03c1.1-1.17 2.181-2.338 3.071-3.306h.145v-.156a2.4 2.4 0 0 0 .541-1.4h.027l-.014-.263c-.002-.028-.006-.038-.007-.049z"/><path id="Path_2460" data-name="Path 2460" class="cls-2" d="M205.938 386.038h-.006l6.639-12.09a19.982 19.982 0 0 0 2.335-9.631 21.263 21.263 0 1 0-42.525 0 19.972 19.972 0 0 0 2.343 9.64l6.631 12.081h-22.593l-.007 84.752v77.749h116.064l6.319 11.51h5.952l6.327-11.51h27.845v-77.253h.008v-85.248zm-27.006-14.376a15.226 15.226 0 0 1-1.754-7.345 16.466 16.466 0 0 1 32.932 0 15.1 15.1 0 0 1-1.753 7.328l-8.171 14.89-2.954 5.371-1.147 2.077-.956 1.739v.005l-.081.145h-2.817l-.362-.656v-.006l-1.16-2.091v-.005l-.668-1.211h.006zm109.019 158.012a5.448 5.448 0 1 1 1.575-3.831 5.187 5.187 0 0 1-1.576 3.832zm27.444 13h-18.756l4.516-8.22a17.83 17.83 0 0 0 2.078-8.607 18.493 18.493 0 0 0-5.6-13.513 19.631 19.631 0 0 0-3.637-2.828l-.215-.132v.007a16.432 16.432 0 0 0-2.436-1.2h.166l-1.236-.392c.835-1.386 1.738-2.9 2.7-4.6a2.4 2.4 0 1 0-4.161-2.377 222.94 222.94 0 0 1-3.589 6.024 8.34 8.34 0 0 1-.362-.041 5.974 5.974 0 0 0-.744-.061 20.191 20.191 0 0 0-4.064.419 19.152 19.152 0 0 0-15.047 18.694 17.906 17.906 0 0 0 2.071 8.608l4.515 8.219h-28.11v-22.259h-10.461a9.142 9.142 0 1 1 0-18.284h10.458v-29.219l-.433.462a176.798 176.798 0 0 1-5.361 5.5l-.074.074v17.311h-4.59a15.01 15.01 0 1 0 0 30.02h4.59v16.388h-72.984v-71.378h4.579l-.044-.287a48.214 48.214 0 0 1-.517-5.34l-.01-.24h-4.007v-73.516h19.944l4.512 8.206-.654 1.47c-.827 1.852-1.682 3.766-2.464 5.675a2.412 2.412 0 0 0 1.316 3.135 2.466 2.466 0 0 0 .908.17 2.387 2.387 0 0 0 2.215-1.491c1.135-2.756 2.379-5.531 3.582-8.216l.082-.183h3.822l4.819-8.766h34.9v19.6l.157 2.925h10.449a9.142 9.142 0 1 1 0 18.284h-10.6v28.293l.434-.474c.713-.776 1.425-1.56 2.144-2.352l.934-1.026q1.136-1.25 2.29-2.51l.066-.071V438.6h4.735a15.018 15.018 0 0 0 0-30.036h-4.738v-16.658h71.916v73.512h-2.975l-.038.2a72.084 72.084 0 0 1-1.2 5.351l-.082.313h4.292z"/><path id="Path_2461" data-name="Path 2461" class="cls-2" d="M199.34 370.021a8.091 8.091 0 0 0 .009-11.418 8.018 8.018 0 0 0-5.705-2.337 7.993 7.993 0 0 0-5.705 2.345 8.065 8.065 0 0 0 11.4 11.41zm-8.957-5.7a3.262 3.262 0 1 1 6.524 0 3.058 3.058 0 0 1-.951 2.311 3.237 3.237 0 0 1-4.623 0 3.079 3.079 0 0 1-.95-2.316z"/></g></g></svg>