<svg xmlns="http://www.w3.org/2000/svg" width="288" height="288"><defs><style>.cls-1{fill:#5773ff}</style></defs><g id="illustration_whole-person" data-name="illustration/whole-person" transform="translate(-44 -70)"><g id="Group_1323" data-name="Group 1323" transform="translate(-255.578 -326.237)"><path id="Path_2485" data-name="Path 2485" class="cls-1" d="M457.729 536.041l.01-.006-.032-.01a29.257 29.257 0 0 0 6.779-5.528h.007l.12-.134.007-.008.222-.248h-.007a28.894 28.894 0 1 0-43.467 0l.063.071c.055.063.107.128.163.19l.12.134.012-.005a28.986 28.986 0 0 0 6.782 5.529l-.034.01.011.006a40.224 40.224 0 0 0-27.9 38.07v25.067H418.3v-.005h67.334V574.11a40.224 40.224 0 0 0-27.905-38.069zm10.679 57.259v-15.029h-5.868V593.3h-38.876v-8.055h-.008v-6.977h-5.868v7.477h.009v7.555h-11.342v-19.19a34.113 34.113 0 0 1 34.07-34.078h5.152a34.116 34.116 0 0 1 34.078 34.078v19.2h-11.346zm-9.743-65.247l-.1.088a22.96 22.96 0 0 1-15.465 6.019 22.887 22.887 0 0 1-15.557-6.1l-.017-.016a23.03 23.03 0 1 1 31.135.018z"/><path id="Path_2486" data-name="Path 2486" class="cls-1" d="M453.509 551.936a6.433 6.433 0 0 0-2.963-.724 7.17 7.17 0 0 0-6.1 3.731l-.841 1.435-.847-1.435a7.143 7.143 0 0 0-6.088-3.731 6.491 6.491 0 0 0-2.97.724 8.161 8.161 0 0 0-3.939 4.849 9.893 9.893 0 0 0 .115 6.443c1.559 4.243 12.351 12.676 13.577 13.625l.153.117.153-.117c4.44-3.423 12.3-10.144 13.57-13.624a9.85 9.85 0 0 0 .123-6.444 8.168 8.168 0 0 0-3.943-4.849z"/></g><circle id="Ellipse_448" data-name="Ellipse 448" cx="114" cy="114" r="114" transform="translate(74.5 100.5)" stroke="#5773ff" stroke-linecap="round" stroke-miterlimit="10" stroke-width="6" stroke-dasharray="12 11" fill="none"/><path id="bound" transform="translate(44 70)" fill="none" d="M0 0h288v288H0z"/></g></svg>